<?xml version="1.0" encoding="UTF-8"?>
<!DOCTYPE svg PUBLIC "-//W3C//DTD SVG 1.1//EN" "http://www.w3.org/Graphics/SVG/1.1/DTD/svg11.dtd">
<svg xmlns="http://www.w3.org/2000/svg" version="1.1" width="399px" height="399px" style="shape-rendering:geometricPrecision; text-rendering:geometricPrecision; image-rendering:optimizeQuality; fill-rule:evenodd; clip-rule:evenodd" xmlns:xlink="http://www.w3.org/1999/xlink">
  <g>
    <path style="opacity:1" fill="#fefefe" d="M -0.5,-0.5 C 132.5,-0.5 265.5,-0.5 398.5,-0.5C 398.5,132.5 398.5,265.5 398.5,398.5C 265.5,398.5 132.5,398.5 -0.5,398.5C -0.5,265.5 -0.5,132.5 -0.5,-0.5 Z" />
  </g>
  <g>
    <path style="opacity:1" fill="#c3f0fe" d="M 304.5,245.5 C 303.71,246.401 302.71,247.068 301.5,247.5C 287.751,250.992 273.751,252.325 259.5,251.5C 259.5,251.167 259.5,250.833 259.5,250.5C 270.988,186.129 251.988,132.629 202.5,90C 177.292,69.2651 148.292,59.9317 115.5,62C 162.2,27.0501 211.533,23.0501 263.5,50C 309.404,78.6322 331.57,120.132 330,174.5C 328.116,200.658 319.616,224.325 304.5,245.5 Z" />
  </g>
  <g>
    <path style="opacity:1" fill="#fffe80" d="M 118.5,131.5 C 118.5,131.833 118.5,132.167 118.5,132.5C 96.3073,148.879 80.9739,170.212 72.5,196.5C 63.9005,144.797 79.4005,101.797 119,67.5C 113.247,88.7176 113.08,110.051 118.5,131.5 Z" />
  </g>
  <g>
    <path style="opacity:1" fill="#ffd381" d="M 124.5,147.5 C 122.129,142.735 120.129,137.735 118.5,132.5C 118.5,132.167 118.5,131.833 118.5,131.5C 122.933,128.916 127.266,126.082 131.5,123C 132.332,122.312 132.998,122.479 133.5,123.5C 129.704,131.225 126.704,139.225 124.5,147.5 Z" />
  </g>
  <g>
    <path style="opacity:1" fill="#ffe93f" d="M 118.5,132.5 C 120.129,137.735 122.129,142.735 124.5,147.5C 124.5,148.5 124.5,149.5 124.5,150.5C 122.158,157.095 121.158,163.929 121.5,171C 126.047,231.981 154.713,277.481 207.5,307.5C 156.893,306.284 117.726,284.618 90,242.5C 82.0903,228.921 76.257,214.587 72.5,199.5C 72.5,198.5 72.5,197.5 72.5,196.5C 80.9739,170.212 96.3073,148.879 118.5,132.5 Z" />
  </g>
  <g>
    <path style="opacity:1" fill="#fefe7f" d="M 124.5,150.5 C 151.947,207.403 196.947,240.736 259.5,250.5C 259.5,250.833 259.5,251.167 259.5,251.5C 254.969,265.732 247.969,278.565 238.5,290C 264.183,282.821 285.183,268.655 301.5,247.5C 302.71,247.068 303.71,246.401 304.5,245.5C 311.809,244.118 318.643,241.451 325,237.5C 306.881,271.375 279.048,293.541 241.5,304C 230.82,306.489 220.154,307.989 209.5,308.5C 208.833,308.167 208.167,307.833 207.5,307.5C 154.713,277.481 126.047,231.981 121.5,171C 121.158,163.929 122.158,157.095 124.5,150.5 Z" />
  </g>
  <g>
    <path style="opacity:1" fill="#ffd27f" d="M 72.5,199.5 C 76.257,214.587 82.0903,228.921 90,242.5C 117.726,284.618 156.893,306.284 207.5,307.5C 208.167,307.833 208.833,308.167 209.5,308.5C 237.398,323.594 266.565,326.594 297,317.5C 297.5,317.833 298,318.167 298.5,318.5C 255.686,365.033 204.686,376.866 145.5,354C 95.4232,328.716 69.4232,287.883 67.5,231.5C 67.32,220.414 68.9867,209.748 72.5,199.5 Z" />
  </g>
  <g>
    <path style="opacity:1" fill="#c3f0be" d="M 301.5,247.5 C 285.183,268.655 264.183,282.821 238.5,290C 247.969,278.565 254.969,265.732 259.5,251.5C 273.751,252.325 287.751,250.992 301.5,247.5 Z" />
  </g>
</svg>
